<?xml version="1.0" encoding="utf-8"?>
<!-- Generator: Adobe Illustrator 23.0.1, SVG Export Plug-In . SVG Version: 6.00 Build 0)  -->
<svg version="1.1" id="Layer_1" xmlns="http://www.w3.org/2000/svg" xmlns:xlink="http://www.w3.org/1999/xlink" x="0px" y="0px"
	 width="30px" height="30px" viewBox="0 0 30 30" style="enable-background:new 0 0 30 30;" xml:space="preserve">
<style type="text/css">
	.st0{fill:#FCEE21;}
	.st1{fill:#FFFFFF;}
</style>
<g>
	<g>
		<path class="st0" d="M19.6,20L19.6,20c0-0.5-0.4-0.9-0.9-0.9h-6.3c-0.5,0-0.9,0.4-0.9,0.9l0,0c0,0.5,0.4,0.9,0.9,0.9
			c-0.5,0-0.9,0.4-0.9,0.9c0,0.5,0.4,0.9,0.9,0.9h0.5c-0.5,0-0.9,0.4-0.9,0.9s0.4,0.9,0.9,0.9h5.3c0.5,0,0.9-0.4,0.9-0.9
			s-0.4-0.9-0.9-0.9h0.5c0.5,0,0.9-0.4,0.9-0.9c0-0.5-0.4-0.9-0.9-0.9C19.1,21,19.6,20.5,19.6,20z"/>
	</g>
	<path class="st1" d="M15,1.3c-4.7,0-8.6,3.9-8.6,8.6c0,2.7,1.2,5.1,3.2,6.8v1.1c0,0.9,0.5,1.7,1.2,2.1c-0.2,0.2-0.3,0.6-0.3,0.9
		c0,0.3,0.1,0.7,0.3,0.9c-0.2,0.2-0.3,0.6-0.3,0.9c0,0.5,0.3,1,0.7,1.2C11.1,24,11,24.2,11,24.5c0,0.8,0.6,1.4,1.4,1.4
		c-0.1,0.2-0.1,0.3-0.1,0.5c0,1.9,1.5,2.3,2.7,2.3c1.8,0,2.7-0.8,2.7-2.3c0-0.2-0.1-0.3-0.1-0.5c0.8,0,1.4-0.6,1.4-1.4
		c0-0.2-0.1-0.5-0.2-0.7c0.4-0.2,0.7-0.7,0.7-1.2c0-0.3-0.1-0.7-0.3-0.9c0.2-0.2,0.3-0.6,0.3-0.9c0-0.3-0.1-0.6-0.3-0.9
		c0.7-0.5,1.2-1.2,1.2-2.1v-1.1c2.1-1.7,3.2-4.1,3.2-6.8C23.7,5.1,19.8,1.3,15,1.3z M18.7,22.6c0,0.3-0.2,0.5-0.5,0.5h-0.5h-5.3
		h-0.5c-0.3,0-0.5-0.2-0.5-0.5c0-0.3,0.2-0.5,0.5-0.5h6.3C18.4,22.1,18.7,22.3,18.7,22.6z M15,27.8c-1.8,0-1.8-0.9-1.8-1.4
		c0-0.3,0.2-0.5,0.5-0.5h2.6c0.3,0,0.5,0.2,0.5,0.5C16.8,27,16.8,27.8,15,27.8z M17.6,25h-1.3h-2.6h-1.3c-0.3,0-0.5-0.2-0.5-0.5
		c0-0.3,0.2-0.5,0.5-0.5h5.3c0.3,0,0.5,0.2,0.5,0.5C18.2,24.8,17.9,25,17.6,25z M18.2,20.2c0.3,0,0.5,0.2,0.5,0.5
		c0,0.3-0.2,0.5-0.5,0.5h-6.3c-0.3,0-0.5-0.2-0.5-0.5c0-0.3,0.2-0.5,0.5-0.5h0.2h5.8H18.2z M13.5,11.7c-0.5-0.1-0.9-0.3-0.9-0.5
		c0-0.1,0.1-0.2,0.1-0.2c0.1-0.1,0.2-0.1,0.5-0.1c0.1,0,0.1,0,0.2,0c0.1,0,0.2,0.1,0.2,0.2C13.5,11,13.5,11.7,13.5,11.7z M16,19.3
		h-2v-7c0.5,0.1,0.8,0.1,1,0.1s0.6,0,1-0.1L16,19.3L16,19.3z M19.7,16c-0.1,0.1-0.2,0.2-0.2,0.3v1.3c0,0.9-0.7,1.6-1.6,1.6h-1.3
		v-7.1c0.8-0.1,1.4-0.4,1.4-1c0-0.3-0.1-0.5-0.2-0.6c-0.2-0.2-0.6-0.3-1.1-0.2c-0.4,0.1-0.7,0.3-0.7,0.8v0.8c-0.3,0.1-0.7,0.1-1,0.1
		l0,0l0,0c-0.3,0-0.6,0-1-0.1v-0.8c0-0.4-0.3-0.7-0.7-0.8c-0.5-0.1-0.9,0.1-1.1,0.2c-0.1,0.1-0.2,0.3-0.2,0.6c0.1,0.6,0.8,0.9,1.4,1
		v7.1h-1.3c-0.9,0-1.6-0.7-1.6-1.6v-1.3c0-0.1-0.1-0.3-0.2-0.3c-2-1.5-3.1-3.7-3.1-6.1c0-4.3,3.5-7.8,7.8-7.8s7.8,3.5,7.8,7.8
		C22.8,12.3,21.6,14.6,19.7,16z M16.6,11.7V11c0-0.1,0.1-0.2,0.2-0.2c0.1,0,0.2,0,0.2,0c0.2,0,0.4,0.1,0.5,0.1
		c0.1,0.1,0.1,0.1,0.1,0.2C17.5,11.4,17.1,11.6,16.6,11.7z"/>
</g>
</svg>
